<?xml version="1.0" encoding="UTF-8"?>
<svg id="Layer_1" data-name="Layer 1" xmlns="http://www.w3.org/2000/svg" viewBox="0 0 782.24 711.31">
  <defs>
    <style>
      .cls-1 {
        fill: #e8396a;
      }

      .cls-2 {
        fill: #231f20;
      }

      .cls-3 {
        fill: #fff;
      }
    </style>
  </defs>
  <path class="cls-1" d="M481.41,208.14c-9.85-14.87-26.38-14.26-41.85-4.23-17.4,11.28-40.3,11.14-50.01-6.18-5.82-10.39-15.38-17.23-26.87-20.32-22.48-6.04-38.13,8.73-50.94,26.75-9.26,13.01-12.21,18.34-23.5,22.58-7.74,2.9-21.88,1.06-29.08-5.93l-1.8-1.6c-8.75-7.91-14.74-16.49-21.85-22.58s-14.52-3.72-17.79-2.26c-2.52.8-6.87,4.71-7.81,12.24-1.12,8.95,5.79,20.71,8.47,29.26,1.76,5.64,1.69,12.3-1.23,17.5l-8.61,15.36c-7.21,12.86-4.58,28.53-8.42,32.18-4.25,4.03-19.58-5.87-27.65-12.07-27.26-20.94-49.83-47.12-65.64-77.73-4.27-8.27-7.79-15.87-12.67-23.58-8.17-12.89-21.8-21.44-37.31-20.21-9.3.75-17.1,4.71-22.81,11.94-9.48,11.99-11.06,29.04-3,42.34,5.3,8.75,13.8,14.36,23.2,17.95l40.57,15.49c26.54,10.14,50.18,25.16,69.2,46.32,18.06,20.1,29.83,43.8,16.01,68.81l-14.57,26.37c-9.18,16.6-14.3,36.06-5.98,53.33l11.69,24.28c9.72,20.18,4.15,31.67-12.37,44.67-15.82,12.45-32.33,23.03-50.17,32.57l-46.23,24.71c-17.05,9.11-38.31,25.5-41.6,44.32-2.24,12.81,4.89,23.73,17.11,27.32,19.36,5.68,34.52-7.92,46.64-23.42l17.99-23,31.39-37.62c11.25-13.49,24.34-24.65,38.07-35.63,13.82-11.06,33.25-20.5,46.69-8.41,9.26,8.33,8.46,21.92-.27,30.98l-16.83,13.89c-7.05,5.81-14.2,10.89-19.97,18.01-12.56,15.51-17.52,38.23-3.8,48.62,11.82,8.94,29.28,1.31,38.1-12.36,12.36-19.18,10.75-39.51,19.59-59.18,5.84-13,16.31-22.24,33.72-22.01l3.62.24c11.91,1.08,19.86,5.06,23.99,11.41,8.71,13.39,11.82,28.33,8.25,43.99-1.84,8.04.07,16.72,4.1,23.39,5.46,9.04,15.13,13.1,25.21,9.71,2.8-.94,6.53-.48,8.53,1.32,6.74,6.06-2.73,26.95-7.65,39.57-3.17,8.11-2.63,16.69,2.63,23.2,4.61,5.7,12.3,10.14,20.5,8.15,14.06-3.42,20.24-18.2,15.55-31.34-7.78-21.8,2.02-41.33,21.43-52.72,20.49-12.02,27.96-22.91,28.25-47.92.05-4.28,3.13-7.66,7.91-6.89,6.62,1.06,14.42,4.36,18.1,10.47,5.91,9.84,6.27,36.45,4.64,50.36l-3.74,31.95c-3.32,28.36,8.23,53.38,36.89,58.07,9.98,1.63,20.93,1.04,28.52-6.43,11.6-11.42,14.16-28.21,9.66-43.79-3.23-11.16-8.91-21.04-15.26-30.88l-28.61-44.3c-4.81-7.46-9.16-15.63-9.94-24.52-.47-5.43,6.74-8.9,11.52-7.7l18.82,4.73c6.63,1.67,13.35-1.54,17.24-5.58,8.46-8.79,1.74-18.06,3.43-26.75,24.92-17.12,5.89-47.02,18.13-63.1,5.62-7.38,15.63-9.88,24.68-7.83,14.07,3.18,27.1,8.36,39.83,14.93,10.74,5.55,19.31,12.85,26.74,22.27l14.09,17.85c7.41,9.39,18.43,15.95,30.24,14.95,9.49-.81,16.05-7.47,16.23-16.84.23-11.56-6.74-22.5-18-25.75l-26.45-7.65c-25.62-7.41-47.68-23.44-61.05-46.37-5.14-8.83-5.87-18.2-1.28-27.44,13.3-26.77,35.53-46.43,62.51-59.27,27.49-13.09,55.19-23.1,84.11-32.54,18.15-5.93,42.5-14.67,48.57-31.34,3.19-8.76-.94-17.36-9.84-20.01-16.87-5.01-36.3,9.27-49.85,21.07-14.02,12.21-27.52,23.84-43.97,32.9-22.22,12.25-45.44,21.01-69.92,27.69-5.59,1.52-11.4,1.68-16.94,1.21-4.38-.38-7.04-4.39-6.76-8.5.59-8.34-3.03-14.41-10.3-18.31-5.59-3.01-10.83-9.14-10.51-15.82l.92-19.31c.83-17.53-20.27-13.13-27.53-22.31-8.71-11.02-7.93-25.13-.9-36.66,11.01-18.05,21.64-35.52,35.01-51.77,19.59-23.83,34.9-25.08,46.11-34.91,7.61-6.67,10.64-17.81,5.92-26.85-4.41-8.44-14.58-10.63-23.11-7.38-19.3,7.37-21.18,31.06-35.17,52.86-7.02,10.94-14.08,21.53-23.3,30.72l-21.87,21.8c-7.95,7.93-28.93,21.83-32.9,12.49M507.27,465.24c-50.08,83.78-162.01,99.02-232.46,35.85-66.35-59.49-68.4-161.1-4.67-223.23,59.42-57.93,154.74-57.01,213.08.73,49.88,49.37,60.21,126.14,24.05,186.65Z"/>
  <path class="cls-1" d="M502.43,10.89c-1.79-6.06-7.66-11.34-13.96-10.86-7.77.6-13.02,6.37-16.41,12.96-5.76,13.22-6.56,27.56-4.9,42.01,1.37,11.76,2.95,22.75,6.49,34.01.17.54.91.62,1.19.13l22.57-40.43c5.77-10.04,8.79-25.01,5.02-37.83Z"/>
  <path class="cls-1" d="M471.6,147.13c-7.44,10.45-9.86,14.72-16.11,23.67-.48.69-1.46.65-1.55-.19l-1.24-7.63-4.05-23.48c-1.75-9.29,1.13-18.99,8.88-24.24,4.85-3.27,10.86-3.92,15.68-.84,11.05,7.05,6.79,20.92-1.62,32.72Z"/>
  <path class="cls-1" d="M37.71,434.65c-8.8-9.63-24.71-10.48-34.01-1.35-4.95,4.86-4.96,11.85.17,16.68,8.84,8.3,23.84,8.07,33.15-.32,4.86-4.39,4.68-10.64.69-15.01Z"/>
  <path class="cls-1" d="M197.44,120.23c-3.93-4.6-9.7-6.52-15.44-4.6-4.99,1.66-8.79,6.3-9.44,12.34-1.26,11.77,9.42,22.99,19.52,21.48,3.74-.56,8.65-3.24,10.33-8.23,2.64-7.86-.17-15.35-4.97-20.99Z"/>
  <path class="cls-1" d="M755.13,558.16c-4.34,6.44-12.85,5.65-18.11,1.58-3.75-2.9-5.94-7.01-5.77-11.63.14-4,2.77-8.49,7.1-10.13,5.74-2.18,11.28.35,14.83,4.23,3.53,3.84,5.27,11.02,1.95,15.95Z"/>
  <path class="cls-1" d="M322.24,50.16c-3.09,5.23-10.07,4.25-14.2,1.28-6.17-4.44-8.44-12.43-5.85-19.65,1.45-4.04,5.93-6.47,10.47-5.1,9.35,2.83,14.93,14.39,9.58,23.47Z"/>
  <path class="cls-1" d="M353.93,64.57c-1.01,3.58-3.76,5.87-6.25,6.17-3.4.41-6.77-1.17-7.68-3.87-1.11-3.3-.45-6.97,2.24-9.13,2.52-2.03,5.89-2.44,8.64-.87,1.96,1.13,3.93,4.6,3.05,7.7Z"/>
  <path class="cls-3" d="M507.26,465.24c-50.08,83.78-162,99.02-232.46,35.85-66.35-59.49-68.4-161.1-4.67-223.23,59.42-57.93,154.73-57.01,213.08.73,49.88,49.37,60.21,126.14,24.05,186.64ZM487.83,469.84c44.84-60.8,33.28-145.34-26.19-192.08-36.34-28.56-85.18-37.27-131.63-21.3-37.78,12.99-71.35,44.71-85.25,86.02-14.26,42.37-7.97,88.83,19.06,126.34,23.58,32.72,62.09,54.98,104.77,57.21,46.76,2.44,91.24-18.23,119.24-56.18Z"/>
  <path class="cls-3" d="M487.83,469.84c-27.99,37.96-72.48,58.63-119.24,56.18-42.68-2.23-81.19-24.49-104.77-57.21-27.03-37.51-33.32-83.97-19.06-126.34,13.9-41.31,47.47-73.03,85.25-86.02,46.45-15.97,95.3-7.26,131.63,21.3,59.47,46.74,71.03,131.28,26.19,192.08Z"/>
  <path d="M313.87,476.41,482.96,366.55,339.49,483.92c59.28,22.5,123.33-12.85,137.36-73.16,14.14-60.81-28.53-120.84-91.54-126.3-33.63-2.91-65.47,9.86-87.69,35.81-22.63,26.44-30.61,61.89-20.22,97.21,8.44,28.69,31.36,54.78,62.09,66.44Z"/>
  <path class="cls-2" d="M335.09,495.43c-34.4-13.05-60.05-42.26-69.51-74.37-11.64-39.54-2.71-79.23,22.63-108.82,24.87-29.05,60.52-43.35,98.16-40.09,70.54,6.11,118.31,73.32,102.48,141.39-15.7,67.52-87.4,107.08-153.76,81.9Z"/>
  <path class="cls-3" d="M391.42,375.74c-4.72-1.79-8.24-5.8-9.54-10.21-1.6-5.43-.37-10.88,3.11-14.94s8.31-5.95,13.47-5.5c9.68.84,16.24,10.06,14.07,19.41-2.16,9.27-12,14.7-21.11,11.24Z"/>
  <path class="cls-3" d="M442.72,358.83c-9.33-3.54-16.29-11.46-18.85-20.17-3.16-10.72-.73-21.48,6.14-29.51s16.41-11.76,26.62-10.87c19.13,1.66,32.08,19.88,27.79,38.34-4.26,18.31-23.7,29.04-41.7,22.21Z"/>
</svg>